<svg width="377" height="94" viewBox="0 0 377 94" fill="none" xmlns="http://www.w3.org/2000/svg">
<path d="M5.696 60V14.56H21.12C25.9413 14.56 29.952 15.584 33.152 17.632C36.3947 19.6373 38.8267 22.368 40.448 25.824C42.0693 29.2373 42.88 33.0347 42.88 37.216C42.88 41.824 41.984 45.8347 40.192 49.248C38.4427 52.6613 35.9253 55.3067 32.64 57.184C29.3973 59.0613 25.5573 60 21.12 60H5.696ZM38.4 37.216C38.4 33.5893 37.7173 30.368 36.352 27.552C35.0293 24.736 33.088 22.5387 30.528 20.96C27.968 19.3387 24.832 18.528 21.12 18.528H10.176V56.032H21.12C24.8747 56.032 28.032 55.2 30.592 53.536C33.152 51.872 35.0933 49.632 36.416 46.816C37.7387 43.9573 38.4 40.7573 38.4 37.216ZM51.446 60V14.56H55.926V60H51.446ZM67.321 60V14.56H71.801V56.032H98.041V60H67.321ZM144.89 60V23.008L128.442 51.744H125.626L109.114 23.008V60H104.634V14.56H109.242L126.97 45.664L144.826 14.56H149.37V60H144.89ZM174.839 14.56H178.615L197.495 60H192.759L186.871 45.792H166.455L160.631 60H155.831L174.839 14.56ZM185.847 42.272L176.695 19.808L167.415 42.272H185.847ZM199.202 14.56L214.05 39.008L229.026 14.56H233.89L216.29 43.104V60H211.81V42.976L194.274 14.56H199.202ZM249.651 14.56H253.427L272.307 60H267.571L261.683 45.792H241.267L235.443 60H230.643L249.651 14.56ZM260.659 42.272L251.507 19.808L242.227 42.272H260.659Z" fill="#345E7D"/>
<path d="M280.384 60.008H277.072L277.504 58.04H280.864L281.008 57.224C281.424 55.176 282.048 53.432 282.88 51.992C283.744 50.52 284.768 49.4 285.952 48.632C287.136 47.864 288.432 47.48 289.84 47.48C290.736 47.48 291.568 47.624 292.336 47.912C293.136 48.2 293.776 48.584 294.256 49.064L293.008 50.792C292.688 50.408 292.224 50.12 291.616 49.928C291.04 49.704 290.432 49.592 289.792 49.592C288.256 49.592 286.928 50.248 285.808 51.56C284.72 52.84 283.92 54.712 283.408 57.176L283.264 58.04H289.936L289.504 60.008H282.784L275.776 93.224H273.376L280.384 60.008ZM296.845 58.04H299.245L293.965 83H291.565L296.845 58.04ZM299.005 47.96H301.405L300.493 52.376H298.093L299.005 47.96ZM305.59 83.288C304.502 83.288 303.654 83 303.046 82.424C302.438 81.816 302.134 81 302.134 79.976C302.134 79.784 302.15 79.592 302.182 79.4C302.214 79.176 302.246 78.968 302.278 78.776L308.806 47.96H311.206L304.822 78.056C304.79 78.216 304.758 78.36 304.726 78.488C304.726 78.616 304.726 78.76 304.726 78.92C304.726 80.36 305.51 81.08 307.078 81.08C307.43 81.08 307.846 81.032 308.326 80.936C308.806 80.84 309.254 80.728 309.67 80.6V82.52C309.126 82.712 308.454 82.888 307.654 83.048C306.854 83.208 306.166 83.288 305.59 83.288ZM318.455 58.04H320.711L319.415 63.992C320.823 61.976 322.439 60.408 324.263 59.288C326.119 58.168 327.975 57.608 329.831 57.608C331.111 57.608 332.183 57.88 333.047 58.424C333.911 58.968 334.551 59.752 334.967 60.776C335.415 61.8 335.591 63.048 335.495 64.52C336.391 63.016 337.415 61.752 338.567 60.728C339.719 59.704 340.951 58.936 342.263 58.424C343.607 57.88 344.935 57.608 346.247 57.608C347.527 57.608 348.567 57.864 349.367 58.376C350.167 58.856 350.759 59.56 351.143 60.488C351.527 61.384 351.719 62.488 351.719 63.8C351.719 64.504 351.671 65.256 351.575 66.056C351.479 66.856 351.335 67.72 351.143 68.648L348.071 83H345.671L348.647 69.08C348.967 67.416 349.127 65.992 349.127 64.808C349.127 63.144 348.775 61.896 348.071 61.064C347.399 60.232 346.375 59.816 344.999 59.816C343.719 59.816 342.455 60.152 341.207 60.824C339.959 61.464 338.807 62.36 337.751 63.512C336.695 64.664 335.799 66.024 335.063 67.592L331.847 83H329.447L332.375 69.08C332.567 68.216 332.695 67.432 332.759 66.728C332.855 65.992 332.903 65.32 332.903 64.712C332.903 63.048 332.567 61.816 331.895 61.016C331.223 60.216 330.199 59.816 328.823 59.816C326.903 59.816 325.031 60.536 323.207 61.976C321.415 63.384 319.959 65.24 318.839 67.544L315.575 83H313.175L318.455 58.04ZM362.664 83.48C360.776 83.48 359.048 83.16 357.48 82.52C355.944 81.88 354.696 80.92 353.736 79.64L355.224 78.008C356.28 79.192 357.432 80.072 358.68 80.648C359.928 81.224 361.336 81.512 362.904 81.512C364.472 81.512 365.848 81.272 367.032 80.792C368.248 80.312 369.208 79.624 369.912 78.728C370.616 77.832 370.968 76.792 370.968 75.608C370.968 74.328 370.408 73.416 369.288 72.872C368.168 72.328 366.568 71.768 364.488 71.192C363.016 70.776 361.768 70.392 360.744 70.04C359.752 69.656 359 69.16 358.488 68.552C358.008 67.944 357.768 67.112 357.768 66.056C357.768 64.232 358.232 62.696 359.16 61.448C360.12 60.2 361.384 59.256 362.952 58.616C364.52 57.944 366.248 57.608 368.136 57.608C370.056 57.608 371.656 57.944 372.936 58.616C374.248 59.256 375.176 60.088 375.72 61.112L374.136 62.408C373.592 61.448 372.76 60.744 371.64 60.296C370.52 59.816 369.256 59.576 367.848 59.576C366.568 59.576 365.336 59.784 364.152 60.2C362.968 60.616 362.008 61.256 361.272 62.12C360.536 62.984 360.168 64.088 360.168 65.432C360.168 66.552 360.584 67.352 361.416 67.832C362.28 68.28 363.64 68.744 365.496 69.224C367.128 69.672 368.536 70.136 369.72 70.616C370.904 71.064 371.816 71.64 372.456 72.344C373.096 73.048 373.416 74.008 373.416 75.224C373.416 76.888 372.952 78.344 372.024 79.592C371.128 80.84 369.864 81.8 368.232 82.472C366.632 83.144 364.776 83.48 362.664 83.48Z" fill="#AAAAAA"/>
</svg>
